Coordinates
version=1
nRows=17
nColumns=24
inDegrees=yes

Units are S.I. units (second, meters, Newtons, ...)
Angles are in degrees.

endheader
time	pelvis_tilt	pelvis_list	pelvis_rotation	pelvis_tx	pelvis_ty	pelvis_tz	hip_flexion_r	hip_adduction_r	hip_rotation_r	knee_angle_r	ankle_angle_r	subtalar_angle_r	mtp_angle_r	hip_flexion_l	hip_adduction_l	hip_rotation_l	knee_angle_l	ankle_angle_l	subtalar_angle_l	mtp_angle_l	lumbar_extension	lumbar_bending	lumbar_rotation
      3.76500000	    -10.27715480	     -4.20256621	      9.16490635	     -1.76223793	     -0.05309830	     -0.35564436	     40.46187436	     -0.73531472	     -8.94793502	    -16.21391219	     -1.15885192	      6.92481342	     12.86705622	     -3.52362422	     -1.83066254	      7.96148274	    -22.41114003	     24.89659533	     23.59763198	    -12.87609433	      8.50517133	     -1.54925875	    -20.56660622
      3.77000000	    -10.28178494	     -4.51685311	      9.31866105	     -1.75473994	     -0.05402498	     -0.35559394	     40.56780359	     -0.53631535	     -9.23071088	    -17.19608439	     -1.65000355	      6.72964097	     12.59792069	     -3.50096591	     -2.40440182	      7.42669250	    -23.28029207	     24.65529486	     24.81643971	    -12.40222223	      8.61226237	     -1.11427293	    -20.62983694
      3.77500000	    -10.24971803	     -4.89124277	      9.49270269	     -1.74724628	     -0.05478056	     -0.35551693	     40.60237710	     -0.27293372	     -9.51106402	    -18.08506786	     -2.33350317	      6.31546005	     12.41121948	     -3.46777218	     -3.07051136	      6.90211778	    -24.18882787	     24.28880059	     26.08616682	    -11.75961561	      8.68399546	     -0.61625874	    -20.71982865
      3.78000000	    -10.23510319	     -5.27901725	      9.54602016	     -1.73968347	     -0.05543909	     -0.35530300	     40.66152088	      0.08261895	     -9.72127572	    -18.94483162	     -3.16227335	      5.80426274	     12.21239406	     -3.41577355	     -3.77642048	      6.15880014	    -25.08739345	     23.76210115	     27.46396656	    -10.88390661	      8.78707805	     -0.07076159	    -20.64980626
      3.78500000	    -10.16454780	     -5.63393810	      9.47655774	     -1.73199841	     -0.05578785	     -0.35488632	     40.62742478	      0.54532181	     -9.68301989	    -19.72832687	     -4.12407121	      4.97850561	     11.80383347	     -3.52435633	     -4.44495627	      5.49148882	    -25.67206485	     22.27448202	     28.52369302	     -7.56231067	      8.83050676	      0.45878422	    -20.46598706
      3.79000000	    -10.23312401	     -6.01349721	      9.42097577	     -1.72447308	     -0.05629629	     -0.35444976	     40.78768017	      0.96691521	     -9.77475869	    -20.56995440	     -5.00596655	      4.33563938	     11.47563837	     -3.31388106	     -5.17077372	      4.59324203	    -26.65319581	     21.38156085	     30.04294460	     -6.23298532	      9.00369951	      0.98852952	    -20.27506130
      3.79500000	    -10.25697336	     -6.37016490	      9.40704396	     -1.71697655	     -0.05655101	     -0.35407560	     40.89130275	      1.34890369	     -9.89304898	    -21.43423753	     -5.72054005	      3.78826907	     10.81565201	     -3.15016444	     -5.87330455	      3.85260277	    -27.47455073	     19.76791063	     31.37700611	     -3.08868379	      9.11361168	      1.49400400	    -20.18376960
      3.80000000	    -10.37658059	     -6.81189075	      9.24857445	     -1.70935800	     -0.05688399	     -0.35344426	     41.08147047	      1.93225146	     -9.78579127	    -22.21021417	     -6.61503030	      2.85314302	     10.23488845	     -2.83131468	     -6.68810640	      2.91001585	    -28.52212905	     18.56795656	     32.89287671	     -1.65572222	      9.35709093	      2.08834386	    -19.93131502
      3.80500000	    -10.41148791	     -7.13718696	      9.13205052	     -1.70182402	     -0.05698699	     -0.35287124	     41.18747732	      2.38444564	     -9.71464124	    -23.09124896	     -7.03653801	      2.33892185	      9.26396773	     -2.59646276	     -7.39648962	      2.04550551	    -29.41816116	     16.56460321	     34.32219144	      1.79029537	      9.46600144	      2.56773437	    -19.69821551
      3.81000000	    -10.50549099	     -7.50980728	      8.97336009	     -1.69423242	     -0.05710657	     -0.35218672	     41.32803381	      2.92943751	     -9.54449381	    -23.89760760	     -7.50952597	      1.60225835	      8.42904320	     -2.24462983	     -8.16146938	      1.19671864	    -30.44908821	     14.66589981	     35.77172249	      4.38719031	      9.65501277	      3.08184709	    -19.44925556
      3.81500000	    -10.59730564	     -7.86169904	      8.79291918	     -1.68663713	     -0.05716836	     -0.35144956	     41.44518892	      3.48666881	     -9.31656046	    -24.68777907	     -7.82746906	      0.90472093	      7.60675369	     -1.86424937	     -8.90661739	      0.40785726	    -31.51512542	     12.58129077	     37.15525122	      6.97911403	      9.83255092	      3.57113716	    -19.18451162
      3.82000000	    -10.68352339	     -8.19149443	      8.59119036	     -1.67902990	     -0.05718270	     -0.35065979	     41.52517734	      4.05421205	     -9.04422514	    -25.44094816	     -8.00144552	      0.25294991	      6.89562281	     -1.46092540	     -9.62681036	     -0.30975278	    -32.61854708	     10.33648127	     38.45544148	      9.45276902	      9.99854442	      4.03219151	    -18.90866176
      3.82500000	    -10.80319932	     -8.54005708	      8.40116644	     -1.67153581	     -0.05723257	     -0.34979132	     41.61731454	      4.65265585	     -8.74496443	    -26.12629164	     -8.20626781	     -0.57529045	      6.36966663	     -0.93579211	    -10.36230250	     -0.88794180	    -33.86508196	      8.15340104	     39.70589776	     11.28052447	     10.18393091	      4.48934772	    -18.64622328
      3.83000000	    -10.84863378	     -8.81350636	      8.16162009	     -1.66392280	     -0.05715706	     -0.34899463	     41.58816718	      5.19924250	     -8.45827713	    -26.82484383	     -7.95918317	     -0.83589274	      5.98546398	     -0.53181342	    -10.99909107	     -1.44807456	    -34.98750931	      5.52387253	     40.71466157	     13.79281098	     10.29242994	      4.90105521	    -18.37159917
      3.83500000	    -10.95300940	     -9.14114646	      7.93915908	     -1.65651253	     -0.05718650	     -0.34811621	     41.60496984	      5.79713667	     -8.20366878	    -27.42821238	     -7.88343589	     -1.41204674	      5.81802667	      0.06036260	    -11.67636029	     -1.84416359	    -36.34974658	      3.20767525	     41.60559324	     15.03320272	     10.44379113	      5.34084159	    -18.09923421
      3.84000000	    -11.03619449	     -9.43735446	      7.68129770	     -1.64902176	     -0.05714231	     -0.34724352	     41.54581442	      6.38457545	     -7.95395127	    -27.98123107	     -7.59517221	     -1.74763818	      5.81363836	      0.61627267	    -12.29240294	     -2.16520595	    -37.65128542	      0.70101842	     42.27857695	     16.35517083	     10.58191035	      5.75348002	    -17.81959653
      3.84500000	    -11.09781651	     -9.68347704	      7.42328332	     -1.64167097	     -0.05706439	     -0.34637361	     41.43864856	      6.92053125	     -7.73569893	    -28.50352595	     -7.19564268	     -1.95489786	      5.98654866	      1.19302060	    -12.82281163	     -2.36080716	    -39.00315955	     -1.74708064	     42.75386825	     17.23499628	     10.66772236	      6.11297842	    -17.52921895
